<?xml version="1.0" encoding="utf-8"?>
<!-- Generator: Adobe Illustrator 24.0.1, SVG Export Plug-In . SVG Version: 6.00 Build 0)  -->
<svg version="1.1" id="Layer_1" xmlns="http://www.w3.org/2000/svg" xmlns:xlink="http://www.w3.org/1999/xlink" x="0px" y="0px"
	 viewBox="0 0 341 341" style="enable-background:new 0 0 341 341;" xml:space="preserve">
<style type="text/css">
	.st0{fill:#F2BA19;}
	.st1{fill:#F8951D;}
	.st2{fill:#ED8022;}
	.st3{fill:#561114;}
	.st4{fill:#54B248;}
	.st5{fill:#F04D49;}
	.st6{fill:#E53A39;}
	.st7{fill:#3E9945;}
	.st8{fill:#A92280;}
	.st9{fill:#88236C;}
	.st10{fill:#F2B91B;}
	.st11{fill:#EFDF1A;}
	.st12{fill:#FFFFFF;}
	.st13{fill:#FF7BAC;}
</style>
<rect x="-3480.7" y="-95.4" class="st0" width="2589.8" height="1736.9"/>
<g id="XMLID_18_">
	<g id="XMLID_10_">
		<circle id="XMLID_280_" class="st1" cx="-1897.7" cy="277.4" r="98.5"/>
	</g>
	<g id="XMLID_34_">
		<path id="XMLID_315_" class="st2" d="M-1879.5,180.5c26.7,17.6,44.3,47.9,44.3,82.3c0,54.4-44.1,98.5-98.5,98.5
			c-6.2,0-12.3-0.6-18.3-1.7c15.6,10.3,34.2,16.3,54.2,16.3c54.4,0,98.5-44.1,98.5-98.5C-1799.2,229.2-1833.8,189.1-1879.5,180.5z"
			/>
	</g>
	<g id="XMLID_9_">
		<path id="XMLID_282_" class="st3" d="M-1897.7,381c-57.2,0-103.7-46.5-103.7-103.7s46.5-103.7,103.7-103.7s103.6,46.6,103.6,103.8
			C-1794.1,334.5-1840.6,381-1897.7,381z M-1897.7,184c-51.5,0-93.4,41.9-93.4,93.4s41.9,93.4,93.4,93.4s93.4-41.9,93.4-93.4
			S-1846.2,184-1897.7,184z"/>
	</g>
	<g id="XMLID_11_">
		<path id="XMLID_281_" class="st3" d="M-1902.8,179.4c-0.1-0.9-2.5-22.2,9.9-41.7l8.7,5.5c-10.5,16.5-8.4,34.8-8.4,35
			L-1902.8,179.4z"/>
	</g>
	<g id="XMLID_13_">
		<path id="XMLID_276_" class="st4" d="M-1897.9,162.2c0,0-10.1-37.6-59.2-33.1C-1957.1,129.2-1948.6,180.1-1897.9,162.2z"/>
	</g>
	<g id="XMLID_12_">
		<path id="XMLID_277_" class="st3" d="M-1918,171.2c-7.8,0-14.9-1.9-21.2-5.6c-18.8-11.1-22.9-34.6-23.1-35.6c-0.2-1.4,0.1-2.9,1-4
			s2.2-1.8,3.6-2c52.8-4.8,64.5,36.4,64.6,36.8c0.7,2.6-0.7,5.3-3.3,6.2C-1904,169.8-1911.2,171.2-1918,171.2z M-1950.5,133.9
			c2.2,6.5,7,17.1,16.7,22.9c7.8,4.6,17.6,5.3,29.1,2.2C-1908.8,150.5-1920.8,133.5-1950.5,133.9z"/>
	</g>
</g>
<g id="XMLID_39_">
	<g id="XMLID_36_">
		<path id="XMLID_263_" class="st4" d="M-2100.8,924.9c47.9,47.9,47.9,125.6,0,173.5c-47.9,47.9-125.6,47.9-173.5,0L-2100.8,924.9z"
			/>
	</g>
	<g id="XMLID_37_">
		<path id="XMLID_255_" class="st5" d="M-2121.2,945.3c36.6,36.6,36.6,96.1,0,132.7c-36.6,36.6-96.1,36.6-132.7,0L-2121.2,945.3z"/>
	</g>
	<g id="XMLID_56_">
		<path id="XMLID_314_" class="st6" d="M-2121.2,945.3l-25.4,25.4c14.2,16,46.6,65.9-24.3,133.2c18.2-3.3,35.7-11.9,49.7-25.9
			C-2084.6,1041.4-2084.6,981.9-2121.2,945.3z"/>
	</g>
	<g id="XMLID_32_">
		<path id="XMLID_260_" class="st3" d="M-2187.5,1139.7c-32.8,0-65.6-12.5-90.6-37.5c-2.1-2.1-2.1-5.6,0-7.7l173.5-173.5
			c2.1-2.1,5.6-2.1,7.7,0c50,50,50,131.2,0,181.2C-2121.9,1127.2-2154.7,1139.7-2187.5,1139.7z M-2266.5,1098.3
			c46,41.9,117.5,40.7,161.9-3.8c44.4-44.4,45.7-115.9,3.8-161.9L-2266.5,1098.3z"/>
	</g>
	<g id="XMLID_38_">
		<path id="XMLID_259_" class="st3" d="M-2187.5,1110.9c-25.4,0-50.8-9.7-70.2-29l7.7-7.7c34.5,34.5,90.5,34.5,125,0
			c16.7-16.7,25.8-38.9,25.8-62.5c0-23.6-9.2-45.8-25.8-62.5l7.7-7.7c18.7,18.7,29,43.6,29,70.2c0,26.5-10.3,51.5-29,70.2
			C-2136.7,1101.2-2162.1,1110.9-2187.5,1110.9z"/>
	</g>
	<g id="XMLID_40_">
		
			<rect id="XMLID_258_" x="-2207.1" y="1059.9" transform="matrix(0.7071 -0.7071 0.7071 0.7071 -1397.9047 -1244.0972)" class="st3" width="12.7" height="10.9"/>
	</g>
	<g id="XMLID_41_">
		
			<rect id="XMLID_257_" x="-2148.1" y="1034.1" transform="matrix(0.7071 -0.7071 0.7071 0.7071 -1362.5691 -1210.3506)" class="st3" width="11.5" height="10.9"/>
	</g>
	<g id="XMLID_42_">
		
			<rect id="XMLID_256_" x="-2140.5" y="989.7" transform="matrix(0.7071 -0.7071 0.7071 0.7071 -1328.4039 -1216.825)" class="st3" width="14.9" height="10.9"/>
	</g>
</g>
<g id="XMLID_53_">
	<g id="XMLID_31_">
		<path id="XMLID_250_" class="st4" d="M-1176.7,300.8c-22.4-38.6-28.9-63.3-40.3-84.3c-11.5-21-39.2-13.7-39.2-13.7
			s-27.7-7.3-39.2,13.7s-17.9,45.6-40.3,84.3c-22.4,38.6-16.9,155.9,79.5,155.9S-1154.3,339.4-1176.7,300.8z"/>
	</g>
	<g id="XMLID_65_">
		<path id="XMLID_313_" class="st7" d="M-1176.7,300.8c-22.4-38.6-28.9-63.3-40.3-84.3c-7.4-13.6-21.7-15.4-30.8-14.9
			c11.2,23.5,57.2,128.4,22,194.1c-16.3,30.4-46.2,44.3-75.4,49.9c12.1,6.9,27,11.1,45.1,11.1
			C-1159.6,456.7-1154.3,339.4-1176.7,300.8z"/>
	</g>
	<g id="XMLID_51_">
		<path id="XMLID_252_" class="st3" d="M-1256.2,462c-44.7,0-67.9-24-79.5-44.2c-21.8-37.8-20-93.5-4.7-119.8
			c13.4-23,20.8-40.8,27.4-56.4c4.4-10.4,8.2-19.2,12.8-27.8c10.2-18.7,32.4-19.2,43.9-16.6c11.5-2.5,33.7-2.1,43.9,16.6
			c4.7,8.6,8.5,17.5,12.8,27.8c6.6,15.6,14.1,33.4,27.4,56.4c15.3,26.4,17.2,82-4.7,119.9C-1188.3,438.1-1211.5,462-1256.2,462z
			 M-1267.2,206.9c-7.6,0-18,2.1-23.4,12.2c-4.4,8.1-8.1,16.7-12.3,26.8c-6.4,15.2-14.3,34-28,57.6c-11.9,20.6-17.2,71.2,4.7,109.1
			c14.8,25.7,38.4,38.7,70.2,38.7s55.3-13.1,70.2-38.7c21.8-37.9,16.6-88.5,4.7-109.1l0,0c-13.7-23.6-21.7-42.5-28-57.6
			c-4.3-10-7.9-18.7-12.3-26.8c-9.3-17.2-32.8-11.2-33.2-11.1c-0.9,0.2-1.9,0.2-2.7,0C-1258,207.9-1261.9,206.9-1267.2,206.9z"/>
	</g>
	<g id="XMLID_33_">
		<path id="XMLID_251_" class="st3" d="M-1251.5,203.6l-10.7-1.6l5.3,0.8l-5.3-0.8c0-0.3,4.6-33-15-45.5l5.8-9.1
			C-1245.8,163.8-1251.2,201.9-1251.5,203.6z"/>
	</g>
	<g id="XMLID_52_">
		<path id="XMLID_71_" class="st4" d="M-1256.7,184.1c0,0,10.6-39.3,61.9-34.6C-1194.9,149.4-1203.8,202.7-1256.7,184.1z"/>
	</g>
	<g id="XMLID_46_">
		<path id="XMLID_247_" class="st3" d="M-1235.8,193.4c-7,0-14.6-1.5-22.7-4.3c-2.6-0.9-4.2-3.8-3.4-6.5
			c0.1-0.4,12.4-43.6,67.6-38.5c1.5,0.1,2.8,0.8,3.8,2.1c0.9,1.1,1.3,2.7,1.1,4.2c-0.2,1.1-4.5,25.6-24.2,37.2
			C-1220.2,191.5-1227.6,193.4-1235.8,193.4z M-1249.7,180.6c12.1,3.2,22.4,2.5,30.6-2.3c10.2-6.1,15.2-17.1,17.5-23.9
			C-1232.8,153.9-1245.4,171.7-1249.7,180.6z"/>
	</g>
</g>
<g id="XMLID_87_">
	<g id="XMLID_66_">
		<circle id="XMLID_312_" class="st8" cx="-1526.3" cy="1137.4" r="39.3"/>
	</g>
	<g id="XMLID_91_">
		<path id="XMLID_311_" class="st9" d="M-1532.7,1098.6c-1.2,2-1.6,4.6-0.3,7.7c7.9,19.3-17.8,35.8-23.3,52.1
			c-0.4,1.2-0.6,2.4-0.8,3.6c7.2,9,18.3,14.8,30.7,14.8c1.3,0,2.5-0.1,3.8-0.2c-0.2-0.1-0.3-0.2-0.5-0.3c-8.1-4.1-15.5-8.2-9.9-16.9
			c3.8-6,8.3-11.4,11.8-17.7c7-12.5,13.7-26.5,7.8-40.8c-0.1-0.3-0.3-0.5-0.4-0.7c-4-1.4-8.2-2.1-12.7-2.1
			C-1528.5,1098-1530.6,1098.2-1532.7,1098.6z"/>
	</g>
	<g id="XMLID_59_">
		<path id="XMLID_244_" class="st3" d="M-1526.3,1181.9c-24.5,0-44.5-20-44.5-44.5s20-44.5,44.5-44.5s44.5,20,44.5,44.5
			S-1501.8,1181.9-1526.3,1181.9z M-1526.3,1103.2c-18.9,0-34.2,15.3-34.2,34.2s15.3,34.2,34.2,34.2s34.2-15.3,34.2-34.2
			S-1507.5,1103.2-1526.3,1103.2z"/>
	</g>
	<g id="XMLID_67_">
		<circle id="XMLID_310_" class="st8" cx="-1604.6" cy="1137.4" r="39.3"/>
	</g>
	<g id="XMLID_92_">
		<path id="XMLID_309_" class="st9" d="M-1579.3,1146.5c-1.3,0.1-2.6,0.4-3.8,0.9c-5.7-14.2-23.2-22.4-15.2-40.2
			c1.4-3.1,1.2-6,0.1-8.6c-2.1-0.4-4.3-0.6-6.5-0.6c-4.4,0-8.6,0.7-12.5,2.1c-4.4,11.4-4.9,23.7,0.9,35.1
			c3.2,6.2,11.6,11.9,13.6,18.3c2.4,7.8-6.7,14.3-10.4,20.3c-0.4,0.6-0.6,1.2-0.9,1.7c3,0.7,6.1,1.2,9.3,1.2c6.2,0,12.1-1.5,17.3-4
			c1.5-2.1,2.8-4.2,3.9-6.5c1.3,0.6,2.7,1,4.2,0.9c0.1,0,0.3,0,0.4-0.1c4-3.4,7.2-7.7,9.5-12.4
			C-1570.3,1150.1-1574.5,1146.3-1579.3,1146.5z"/>
	</g>
	<g id="XMLID_54_">
		<path id="XMLID_241_" class="st3" d="M-1604.6,1181.9c-24.5,0-44.5-20-44.5-44.5s20-44.5,44.5-44.5s44.5,20,44.5,44.5
			C-1560.2,1161.9-1580.1,1181.9-1604.6,1181.9z M-1604.6,1103.2c-18.9,0-34.2,15.3-34.2,34.2s15.3,34.2,34.2,34.2
			s34.2-15.3,34.2-34.2S-1585.8,1103.2-1604.6,1103.2z"/>
	</g>
	<g id="XMLID_73_">
		<ellipse id="XMLID_308_" class="st8" cx="-1592.8" cy="1266.1" rx="38.7" ry="38.7"/>
	</g>
	<g id="XMLID_93_">
		<path id="XMLID_307_" class="st9" d="M-1554.2,1266.3c-2.7-7.4-6.5-14.5-11.1-20.9c-5.2-7.3-11.4-12.8-18.3-16.8
			c-3-0.7-6.1-1.2-9.3-1.2c-11.3,0-21.4,4.8-28.4,12.5c0.4,0.1,0.8,0.1,1.2,0.1c16.7,0.3,30,4.6,39.6,19.1
			c7.7,11.8,12.5,25.4,9,39.2C-1561.2,1291.5-1554.3,1279.7-1554.2,1266.3z"/>
	</g>
	<g id="XMLID_69_">
		<path id="XMLID_238_" class="st3" d="M-1593,1310c-24.2,0-43.9-19.7-43.9-43.9s19.7-43.9,43.9-43.9s43.9,19.7,43.9,43.9
			S-1568.8,1310-1593,1310z M-1593,1232.5c-18.5,0-33.6,15.1-33.6,33.6s15.1,33.6,33.6,33.6s33.6-15.1,33.6-33.6
			S-1574.4,1232.5-1593,1232.5z"/>
	</g>
	<g id="XMLID_76_">
		<circle id="XMLID_306_" class="st8" cx="-1515.5" cy="1212.3" r="36.3"/>
	</g>
	<g id="XMLID_90_">
		<path id="XMLID_305_" class="st9" d="M-1533.6,1241.7c-0.8,0.2-1.5,0.4-2.1,0.7c5.8,3.9,12.7,6.1,20.2,6.1
			c5.9,0,11.4-1.4,16.3-3.9c17.2-13,21.6-33,13.9-52.4c-6.5-9.8-17.6-16.2-30.2-16.2c-0.8,0-1.6,0.1-2.4,0.1
			c0.4,0.7,0.9,1.3,1.6,1.9C-1493.9,1199.4-1503.5,1234.6-1533.6,1241.7z"/>
	</g>
	<g id="XMLID_75_">
		<path id="XMLID_235_" class="st3" d="M-1515.5,1253.7c-22.8,0-41.4-18.6-41.4-41.4s18.6-41.4,41.4-41.4s41.4,18.6,41.4,41.4
			C-1474.1,1235.2-1492.7,1253.7-1515.5,1253.7z M-1515.5,1181.2c-17.2,0-31.1,14-31.1,31.1c0,17.2,14,31.1,31.1,31.1
			c17.2,0,31.1-14,31.1-31.1S-1498.3,1181.2-1515.5,1181.2z"/>
	</g>
	<g id="XMLID_80_">
		<circle id="XMLID_304_" class="st8" cx="-1535.6" cy="1263.7" r="36.3"/>
	</g>
	<g id="XMLID_89_">
		<path id="XMLID_303_" class="st9" d="M-1499.3,1263.7c0-19.3-15.1-35-34-36.2c0.3,1.9,1.2,3.8,3,5.5c13.7,13.1,21.3,29.7,9,47
			c-6.5,9.1-16.2,15.5-26.8,17.6c3.9,1.5,8.1,2.3,12.6,2.3C-1515.5,1299.9-1499.3,1283.7-1499.3,1263.7z"/>
	</g>
	<g id="XMLID_79_">
		<path id="XMLID_127_" class="st3" d="M-1535.6,1305.1c-22.8,0-41.4-18.6-41.4-41.4s18.6-41.4,41.4-41.4s41.4,18.6,41.4,41.4
			S-1512.7,1305.1-1535.6,1305.1z M-1535.6,1232.5c-17.2,0-31.1,14-31.1,31.1c0,17.2,14,31.1,31.1,31.1c17.2,0,31.1-14,31.1-31.1
			C-1504.4,1246.5-1518.4,1232.5-1535.6,1232.5z"/>
	</g>
	<g id="XMLID_78_">
		<circle id="XMLID_302_" class="st8" cx="-1623.1" cy="1202.2" r="36.3"/>
	</g>
	<g id="XMLID_95_">
		<path id="XMLID_301_" class="st9" d="M-1591.3,1219.7c-8.7-11.5-12-25.9-8.9-40.3c0.4-2,0.3-3.8-0.3-5.5
			c-3.9-3.2-8.5-5.5-13.6-6.8c-2.7,0.9-5,3-5.8,6.8c-4.7,21.6,0.3,43.2,14,60.2C-1599.7,1230.8-1594.7,1225.8-1591.3,1219.7z"/>
	</g>
	<g id="XMLID_77_">
		<path id="XMLID_119_" class="st3" d="M-1623.1,1243.6c-22.8,0-41.4-18.6-41.4-41.4s18.6-41.4,41.4-41.4s41.4,18.6,41.4,41.4
			S-1600.2,1243.6-1623.1,1243.6z M-1623.1,1171c-17.2,0-31.1,14-31.1,31.1s14,31.1,31.1,31.1c17.2,0,31.1-14,31.1-31.1
			S-1605.9,1171-1623.1,1171z"/>
	</g>
	<g id="XMLID_82_">
		<circle id="XMLID_300_" class="st8" cx="-1565.3" cy="1112" r="39.3"/>
	</g>
	<g id="XMLID_98_">
		<path id="XMLID_299_" class="st9" d="M-1565.3,1072.6c-2.9,0-5.8,0.3-8.6,1c0.5,2.4,2.1,4.6,5.1,6c25.5,11.4,32.7,55.6,10.7,71.1
			c18.2-3.4,32.1-19.4,32.1-38.6c0-2.5-0.3-5-0.7-7.4c-0.5-2.1-1.1-4.1-1.7-6.2C-1533.9,1083.3-1548.3,1072.6-1565.3,1072.6z"/>
	</g>
	<g id="XMLID_81_">
		<path id="XMLID_111_" class="st3" d="M-1565.3,1156.4c-24.5,0-44.5-20-44.5-44.5s20-44.5,44.5-44.5s44.5,20,44.5,44.5
			C-1520.8,1136.5-1540.8,1156.4-1565.3,1156.4z M-1565.3,1077.8c-18.9,0-34.2,15.3-34.2,34.2c0,18.9,15.3,34.2,34.2,34.2
			s34.2-15.3,34.2-34.2S-1546.4,1077.8-1565.3,1077.8z"/>
	</g>
	<g id="XMLID_55_">
		<circle id="XMLID_298_" class="st8" cx="-1565.3" cy="1196" r="35.3"/>
	</g>
	<g id="XMLID_88_">
		<path id="XMLID_297_" class="st9" d="M-1565.3,1231.4c19.5,0,35.3-15.8,35.3-35.3c0-6.6-1.8-12.7-4.9-17.9c-1.5-0.3-3-0.3-4.5,0
			c-1.6-4.4-3.9-8.4-6.9-11.9c-5.5-3.5-12-5.6-19-5.6c-2.3,0-4.5,0.2-6.6,0.6c-2.1,5.1-0.7,12.2,6,14.7c10.4,3.9,10,19.1,6.3,27.3
			c-4,8.9-12.1,14.5-21.8,15.6c-3.1,0.3-5.4,1.8-7.1,3.7C-1582.3,1228.1-1574.2,1231.4-1565.3,1231.4z"/>
	</g>
	<g id="XMLID_64_">
		<path id="XMLID_74_" class="st3" d="M-1565.3,1236.5c-22.3,0-40.5-18.2-40.5-40.5s18.2-40.5,40.5-40.5s40.5,18.2,40.5,40.5
			C-1524.8,1218.4-1543,1236.5-1565.3,1236.5z M-1565.3,1165.8c-16.7,0-30.2,13.6-30.2,30.2c0,16.7,13.6,30.2,30.2,30.2
			c16.7,0,30.2-13.6,30.2-30.2S-1548.6,1165.8-1565.3,1165.8z"/>
	</g>
	<g id="XMLID_83_">
		<path id="XMLID_72_" class="st3" d="M-1560.2,1072.8l-10.2-0.4c0-0.3,1-25.4-8-41.5l9-5C-1559,1044.5-1560.1,1071.7-1560.2,1072.8
			z"/>
	</g>
	<g id="XMLID_84_">
		<path id="XMLID_61_" class="st4" d="M-1565.2,1056.5c0,0,9.7-35.9,56.6-31.6C-1508.6,1024.9-1516.8,1073.6-1565.2,1056.5z"/>
	</g>
	<g id="XMLID_68_">
		<path id="XMLID_62_" class="st3" d="M-1546.1,1065.3c-6.4,0-13.4-1.3-20.9-3.9c-2.5-0.9-4-3.6-3.3-6.2
			c0.1-0.4,11.5-40.1,62.1-35.4c1.4,0.1,2.7,0.8,3.6,2c0.9,1.1,1.2,2.6,1,4c-0.2,1-4.1,23.6-22.2,34.2
			C-1531.8,1063.5-1538.6,1065.3-1546.1,1065.3z M-1558.5,1053.2c10.9,2.9,20.1,2.2,27.5-2.1c9.1-5.4,13.7-15.2,15.8-21.5
			C-1543.4,1029.3-1554.6,1045.1-1558.5,1053.2z"/>
	</g>
</g>
<g id="XMLID_102_">
	<g id="XMLID_101_">
		<path id="XMLID_49_" class="st5" d="M-1079.6,1315.9c-26.6,3.9-50.2,5.9-50.2,5.9s-23.6-1.9-50.2-5.9
			c-26.6-3.9-64.9,8.7-65.8,61.9c-0.9,53.2,60.2,154.1,116,154.1s116.9-100.8,116-154.1S-1053,1311.9-1079.6,1315.9z"/>
	</g>
	<g id="XMLID_107_">
		<path id="XMLID_296_" class="st6" d="M-1129.8,1531.8c55.8,0,116.9-100.8,116-154.1c-0.8-45.9-29.4-61.6-54.4-62.5
			c11.4,40.5,17.2,107.1-37.2,151.7c-25.9,21.2-53,32.6-78,38.2C-1166.5,1521.2-1147.8,1531.8-1129.8,1531.8z"/>
	</g>
	<g id="XMLID_100_">
		<path id="XMLID_57_" class="st3" d="M-1129.8,1536.9c-19.4,0-40.5-11.1-61.1-32c-34.3-34.9-60.7-90.8-60.1-127.3
			c0.4-23.3,8-41.9,21.9-53.7c12.9-11,31.6-15.9,49.8-13.2c24.2,3.6,46.1,5.5,49.4,5.8c3.3-0.3,25.2-2.2,49.4-5.8l0,0
			c18.3-2.7,36.9,2.2,49.8,13.2c13.9,11.8,21.5,30.4,21.9,53.7c0.6,36.5-25.7,92.4-60.1,127.3
			C-1089.2,1525.9-1110.4,1536.9-1129.8,1536.9z M-1189.1,1320.3c-12.5,0-24.5,4.1-33.2,11.5c-11.7,10-17.9,25.5-18.3,46
			c-0.6,33.5,25,87.3,57.1,119.9c18.6,18.9,37.2,28.9,53.7,28.9c16.6,0,35.2-10,53.7-28.9c32.1-32.6,57.7-86.4,57.1-119.9
			c-0.4-20.6-6.5-36.1-18.3-46c-10.7-9.1-26.3-13.1-41.7-10.9c-26.5,3.9-50.3,5.9-50.5,5.9c-0.3,0-0.6,0-0.8,0s-24-2-50.5-5.9
			C-1183.5,1320.5-1186.3,1320.3-1189.1,1320.3z"/>
	</g>
	<g id="XMLID_85_">
		<path id="XMLID_28_" class="st4" d="M-1084.3,1316.5c16.8,0.9,47.9,38.9,36.6,35.2c-11.4-3.6-42.7-8.3-52.9-6.9
			s-11.6,45.3-22.8,43.4s-12.8-18.9-17-31.9s-10.3-7.7-34.8-7s-39.4-5.6-23.1-15.8c16.3-10.2,20.8-18.5,20.8-18.5
			s-18.3-10.7-25.1-11.4c-6.8-0.7,26.4-13.5,49.7-3.3c23.3,10.3,21.2,10,34.5,7s35.5-9.1,46.2-3.7
			C-1061.3,1309.1-1084.3,1316.5-1084.3,1316.5z"/>
	</g>
	<g id="XMLID_99_">
		<path id="XMLID_45_" class="st3" d="M-1122.5,1393.5c-0.6,0-1.2-0.1-1.8-0.2c-12.1-2.1-15.6-15.3-18.6-27c-0.8-3-1.5-5.8-2.4-8.4
			c-1.8-5.6-1.8-5.7-13.8-4.5c-4.2,0.4-9.5,0.9-16,1.1c-14.3,0.4-32-1.1-34.9-10.6c-1.5-5.1,1.5-10,8.9-14.6c8-5,13-9.5,15.8-12.6
			c-6.8-3.7-14.8-7.6-17.9-7.9c-3.7-0.4-4.9-2.8-5.2-3.9c-0.7-2.1,0-4.4,1.8-6c5.3-4.8,34.4-12.6,55.8-3.2l4.7,2.1
			c16,7.1,16,7.1,25,5l1.7-0.4c1.3-0.3,2.7-0.6,4.1-1c14.4-3.4,34.2-8,45.6-2.4c5.3,2.6,5.8,6.4,5.7,8.4c-0.3,3.4-3,6.3-6.8,8.7
			c13.4,8,27,24,29.9,31c1.7,4.1,0.5,6.7-0.8,8c-1,1.1-3.4,2.8-7.5,1.5c-11-3.5-41.1-7.8-50.3-6.7c-2.2,1.8-5,11.8-6.6,17.8
			C-1109.7,1380.4-1113.4,1393.5-1122.5,1393.5z M-1151.3,1342.7c7.4,0,12.6,2.2,15.9,12.2c0.9,2.9,1.7,6,2.5,8.9
			c2.3,8.9,4.8,18,10,19.4c2.3-2,5.2-12.5,6.8-18.2c3.6-12.9,6.6-24,14.8-25.2c9.2-1.3,32.3,1.8,46.8,4.9
			c-7.2-9-21.8-22.6-30.1-23.1c-2.5-0.1-4.5-2-4.8-4.5s1.2-4.8,3.5-5.6c3.4-1.1,7.1-2.7,9.4-4.1c-8.9-2.5-26,1.5-36.5,4
			c-1.5,0.3-2.9,0.7-4.2,1l-1.7,0.4c-12.3,2.8-13.7,2.2-31.4-5.6l-4.7-2.1c-10.9-4.8-24.6-3.9-34-1.9c6.3,3,12.3,6.4,14.1,7.5
			c2.4,1.4,3.2,4.5,1.9,6.9c-0.5,1-5.7,9.8-22.6,20.4c-2.3,1.4-3.4,2.5-4,3.1c2.4,1.5,9.9,3.5,24.2,3.1c6.2-0.2,11.2-0.7,15.3-1
			C-1156.9,1343-1154,1342.7-1151.3,1342.7z"/>
	</g>
	<g id="XMLID_103_">
		<rect id="XMLID_44_" x="-1192.5" y="1428.5" class="st3" width="11.6" height="10.3"/>
	</g>
	<g id="XMLID_104_">
		<rect id="XMLID_43_" x="-1133.6" y="1481" class="st3" width="10.4" height="10.3"/>
	</g>
	<g id="XMLID_105_">
		<rect id="XMLID_35_" x="-1068.7" y="1410.8" class="st3" width="10.6" height="10.3"/>
	</g>
	<g id="XMLID_106_">
		<rect id="XMLID_30_" x="-1190.1" y="1376.3" class="st3" width="13" height="10.3"/>
	</g>
	<g id="XMLID_97_">
		<path id="XMLID_29_" class="st3" d="M-1134.8,1322.5c-0.3-1.9-6.9-46.7,20.9-67.9l6.2,8.2c-22.9,17.5-17,57.7-17,58.2
			L-1134.8,1322.5z"/>
	</g>
</g>
<g id="XMLID_112_">
	<g id="XMLID_109_">
		<path id="XMLID_23_" class="st10" d="M-2186.4,1479.6c0,0,93.4-6.3,146.7-64.1c53.3-57.9,72-126,66.1-148.7s-15.1-35-15.1-35
			l24.8-11.8c0,0,3.2,33,16.1,46c12.9,12.9,76.3,59.5-11.6,176.5s-161.6,91.3-189.1,78.3s-51.4-19.7-48.7-28.1
			C-2194.4,1484.3-2192.8,1480.3-2186.4,1479.6z"/>
	</g>
	<g id="XMLID_121_">
		<path id="XMLID_295_" class="st11" d="M-2133.8,1496.4c135.5-6.9,195.9-113.5,219.5-174.1c-4.7-32.4-26.3-49.3-33.3-56.3
			c-12.9-12.9-16.1-46-16.1-46l-24.8,11.8c0,0,9.2,12.3,15.1,35s-12.8,90.8-66.1,148.7c-53.3,57.9-146.7,64.1-146.7,64.1
			c-6.4,0.6-8,4.6-10.7,13c-0.1,0.2-0.1,0.6-0.1,0.9C-2180.3,1496.5-2159.4,1497.7-2133.8,1496.4z"/>
	</g>
	<g id="XMLID_110_">
		<path id="XMLID_24_" class="st3" d="M-2098.1,1538.8c-17.7,0-35.4-4-53-12.4c-7.2-3.4-14.4-6.5-20.6-9.1
			c-21.1-9-35.1-15-31.5-26.5c2.6-8,5.2-16.2,16.1-17.3c0.1,0,0.1,0,0.2,0c0.9-0.1,91.5-6.9,142.5-62.2
			c52.1-56.7,69.8-123,64.6-142.8c-5.5-21-14-32.7-14-32.8c-1.1-1.5-1.5-3.4-1.1-5.3c0.5-1.8,1.7-3.3,3.4-4.2l24.8-11.8
			c1.8-0.9,4.1-0.9,5.8,0.2c1.8,1,2.9,2.8,3.2,4.9c0.9,8.6,5,32.8,14.4,42.2c0.7,0.7,1.6,1.6,2.7,2.6
			c17.9,16.7,72.4,67.7-13.6,182.1C-2000.3,1507.6-2049.3,1538.8-2098.1,1538.8z M-2190.7,1493.6c2.7,2.9,14.5,8,24,12
			c6.4,2.7,13.6,5.8,21.1,9.3c59.8,28.3,122.6,1.8,181.4-76.4c79.1-105.3,32.7-148.9,15.1-165.3c-1.1-1.1-2.2-2.1-2.9-2.8
			c-10.1-10.1-14.8-29.5-16.7-41l-10.7,5c3.4,6.1,8.4,16.5,12,30.7c6.8,25.8-13.4,95.7-67.6,154.5c-53.9,58.6-145.6,65.9-150.9,66.2
			C-2187.8,1486.1-2188.4,1486.3-2190.7,1493.6z"/>
	</g>
</g>
<g>
	<g>
		<path d="M-2471,416.3h0.2c-48.1,0-87.6,37.1-87.6,85.3V1391c0,32.8,19.1,61.3,49.8,76.2v-48.6c0-5.6,2-10.3,7.6-10.3
			c5.6,0,7.6,4.6,7.6,10.3v56.3c7.6,2.1,14.9,2.8,23.1,2.8h0.4c7.1,0,14.8-0.3,26.2-1.9v-57.1c0-5.6,3.9-10.3,9.6-10.3
			c5.6,0,9.6,4.6,9.6,10.3v48.3c26.8-15,42.1-43.4,42.1-76V501.6C-2382.2,453.4-2422.9,416.3-2471,416.3z"/>
	</g>
	<g>
		<path d="M-3163.1,416.3h0.2c-48.1,0-85.3,37.1-85.3,85.3V1391c0,32.8,19.1,61.3,42.1,76.2v-48.6c0-5.6,5.8-10.3,11.5-10.3
			c5.6,0,11.5,4.6,11.5,10.3v56.3c0,2.1,12.5,2.8,20.8,2.8h0.4c7.1,0,17.2-0.3,21-1.9v-57.1c0-5.6,3.9-10.3,9.6-10.3
			s9.6,4.6,9.6,10.3v48.3c30.7-15,49.8-43.4,49.8-76V501.6C-3071.9,453.4-3114.9,416.3-3163.1,416.3z"/>
	</g>
	<g>
		<path d="M-2813-473c-297.7,3.7-260.7-213.2-260.7-313.3c0-82.4,93.8-288.1,295.7-288.1c201.9,0,308.9,220.2,308.9,220.2
			c87.1,37,85.9-39.3,87.1-51.8c-68.5-193.9-247.4-314.8-421.9-314.8c-238.7,0-441.1,251.9-441.8,562.8h-2.2V526.7
			c0,191.9,155.5,347.4,347.4,347.4h156c200.3,0,362.7-162.4,362.7-362.7v-656.6C-2382-395.3-2535.2-476.5-2813-473z"/>
	</g>
	<g>
		<path class="st12" d="M-2427.7,764.7l-77.2-489.1c-2.8-17.1-25.4-21.4-34.3-6.6l-102.7,170.3c-4.7,7.8-14.4,11.1-22.9,7.6
			c-45.9-18.4-95.7-28-145.5-28c-50.4,0-98.9,9.2-144.7,27.6c-8.4,3.4-18.1,0.2-22.9-7.6L-3080.3,269c-8.9-14.8-31.5-10.5-34.3,6.6
			l-73.3,450.9c-1,5.5-2,11.2-2.8,17l-2.3,20.8c-0.8,10.2,0.5,20.4,0.5,30.4c0,107.4,49.5,204.4,122.3,273V903h513.4v173.1
			c80.5-68.9,130.1-169.5,130.1-281.4C-2426.6,784.8-2426.9,774.8-2427.7,764.7z"/>
	</g>
	<g>
		<path d="M-2517.4,314c-2-12.2-18.1-15.3-24.5-4.7l-100.8,167.2l0.6,0.9c-50.3-25.6-107.5-40-168.1-40c-60,0-116.5,14.1-166.5,39.1
			l0,0l-100.9-167.2c-6.4-10.6-22.5-7.4-24.5,4.7l-67.5,415.7c-1,5.4-1.9,11-2.7,16.5l-2.1,18.7c-0.8,9.7-1.3,19.6-1.3,29.6
			c0,197.2,163.6,357.1,365.3,357.1c201.7,0,365.3-159.9,365.3-357.1c0-10.6-0.5-21.1-1.4-31.5L-2517.4,314z"/>
	</g>
	<g>
		<path class="st12" d="M-2641.2,848c53.2,0,96.5,43.3,96.5,96.5c0,4.2-3.4,7.6-7.6,7.6s-7.6-3.4-7.6-7.6
			c0-44.7-36.4-81.2-81.2-81.2c-44.8,0-81.2,36.4-81.2,81.2c0,4.2-3.4,7.6-7.6,7.6s-7.6-3.4-7.6-7.6
			C-2737.7,891.3-2694.4,848-2641.2,848z"/>
	</g>
	<g>
		<path class="st12" d="M-2974.3,848c53.2,0,96.5,43.3,96.5,96.5c0,4.2-3.4,7.6-7.6,7.6s-7.6-3.4-7.6-7.6
			c0-44.7-36.4-81.2-81.2-81.2s-81.2,36.4-81.2,81.2c0,4.2-3.4,7.6-7.6,7.6s-7.6-3.4-7.6-7.6C-3070.8,891.3-3027.5,848-2974.3,848z"
			/>
	</g>
	<g>
		<path class="st12" d="M-2823,970.4h38c3,0,4.8,3.3,3.1,5.8l-19,29.4c-1.5,2.3-4.8,2.3-6.3,0l-19-29.4
			C-2827.7,973.6-2825.9,970.4-2823,970.4z"/>
	</g>
	<g>
		<path class="st12" d="M-2845.6,1048.5c-16.5,0-31.6-14.2-45-43.9c-1.3-2.9,0-5.9,2.9-7.2c2.9-1.3,6.3-0.7,7.6,2.3
			c11.2,24.9,23.1,37.4,34.5,37.4c0,0,0.1,0,0.2,0c16.6,0,31.8-26.6,36.2-37.1c1.2-2.9,4.6-3.9,7.5-2.6c2.9,1.2,4.3,4,3,6.9
			c-0.8,1.8-19.2,44.3-46.7,44.3C-2845.4,1048.5-2845.5,1048.5-2845.6,1048.5z"/>
	</g>
	<g>
		<path class="st12" d="M-2764.2,1048.5c-16.5,0-31.6-14.2-45-43.9c-1.3-2.9,0-5.9,2.9-7.2c2.9-1.3,6.3-0.7,7.6,2.3
			c11.2,24.9,23.1,37.4,34.5,37.4c0,0,0.1,0,0.2,0c16.6,0,31.8-26.6,36.2-37.1c1.2-2.9,4.6-3.9,7.5-2.6c2.9,1.2,4.3,4,3,6.9
			c-0.8,1.8-19.2,44.3-46.7,44.3C-2764,1048.5-2764.1,1048.5-2764.2,1048.5z"/>
	</g>
	<g>
		<path class="st13" d="M-3073.5,515.4c9.6-8.1,23.7-18.3,37.5-21.4c4-0.9,6.1-5.2,4.3-8.9l-32.2-64.9c-2.8-5.6-11.2-4.1-11.8,2.2
			l-8,87.7C-3084.2,515.6-3077.8,519-3073.5,515.4z"/>
	</g>
	<g>
		<path class="st13" d="M-2540.3,515.4c-9.6-8.1-23.7-18.3-37.5-21.4c-4-0.9-6.1-5.2-4.3-8.9l32.2-64.9c2.8-5.6,11.2-4.1,11.8,2.2
			l8,87.7C-2529.6,515.6-2536,519-2540.3,515.4z"/>
	</g>
	<g>
		<g>
			<path class="st12" d="M-2670.7,995.6c-1.5,0-3-1-3.5-2.5c-0.7-1.9,0.4-4,2.3-4.7l59.6-20.3c2-0.7,4,0.4,4.7,2.3s-0.4,4-2.3,4.7
				l-59.6,20.3C-2669.9,995.6-2670.3,995.6-2670.7,995.6z"/>
		</g>
	</g>
	<g>
		<g>
			<path class="st12" d="M-2615.5,1058.1c-0.4,0-0.7,0-1.1-0.2l-55.2-17.4c-2-0.6-3-2.7-2.4-4.6c0.6-2,2.7-3,4.6-2.4l55.2,17.4
				c2,0.6,3,2.7,2.4,4.6C-2612.5,1057.1-2613.9,1058.1-2615.5,1058.1z"/>
		</g>
	</g>
	<g>
		<g>
			<path class="st12" d="M-2944.2,995.6c1.5,0,3-1,3.5-2.5c0.7-1.9-0.4-4-2.3-4.7l-59.6-20.3c-2-0.7-4,0.4-4.7,2.3s0.4,4,2.3,4.7
				l59.6,20.3C-2945,995.6-2944.6,995.6-2944.2,995.6z"/>
		</g>
	</g>
	<g>
		<g>
			<path class="st12" d="M-2941.4,1016c1.5-0.5,2.5-1.8,2.6-3.5c0-2-1.6-3.7-3.6-3.8l-63-1.4c-2,0-3.7,1.6-3.8,3.6
				c0,2,1.6,3.7,3.6,3.8l63,1.4C-2942.2,1016.2-2941.8,1016.1-2941.4,1016z"/>
		</g>
	</g>
	<g>
		<g>
			<path class="st12" d="M-2605.7,1016c1.5-0.5,2.5-1.8,2.6-3.5c0-2-1.6-3.7-3.6-3.8l-63-1.4c-2,0-3.7,1.6-3.8,3.6
				c0,2,1.6,3.7,3.6,3.8l63,1.4C-2606.5,1016.2-2606.1,1016.1-2605.7,1016z"/>
		</g>
	</g>
	<g>
		<g>
			<path class="st12" d="M-2999.4,1058.1c0.4,0,0.7,0,1.1-0.2l55.2-17.4c2-0.6,3-2.7,2.4-4.6c-0.6-2-2.7-3-4.6-2.4l-55.2,17.4
				c-2,0.6-3,2.7-2.4,4.6C-3002.4,1057.1-3001,1058.1-2999.4,1058.1z"/>
		</g>
	</g>
</g>
<g>
	<g>
		<path d="M256,439.3L256,439.3c-12.5,0-22.8,9.7-22.8,22.2v231.8c0,8.5,5,16,13,19.9v-12.7c0-1.5,0.5-2.7,2-2.7s2,1.2,2,2.7v14.7
			c2,0.5,3.9,0.7,6,0.7h0.1c1.9,0,3.9-0.1,6.8-0.5v-14.9c0-1.5,1-2.7,2.5-2.7c1.5,0,2.5,1.2,2.5,2.7v12.6c7-3.9,11-11.3,11-19.8
			V461.5C279.2,449,268.6,439.3,256,439.3z"/>
	</g>
	<g>
		<path d="M75.7,439.3L75.7,439.3c-12.5,0-22.2,9.7-22.2,22.2v231.8c0,8.5,5,16,11,19.9v-12.7c0-1.5,1.5-2.7,3-2.7
			c1.5,0,3,1.2,3,2.7v14.7c0,0.5,3.3,0.7,5.4,0.7H76c1.9,0,4.5-0.1,5.5-0.5v-14.9c0-1.5,1-2.7,2.5-2.7s2.5,1.2,2.5,2.7v12.6
			c8-3.9,13-11.3,13-19.8V461.5C99.4,449,88.2,439.3,75.7,439.3z"/>
	</g>
	<g>
		<path d="M166.9,207.6C89.3,208.5,99,152,99,125.9c0-21.5,24.4-75.1,77.1-75.1s80.5,57.4,80.5,57.4c22.7,9.6,22.4-10.2,22.7-13.5
			c-17.9-50.5-64.5-82-109.9-82c-62.2,0-114.9,65.6-115.1,146.7h-0.6v308.7c0,50,40.5,90.5,90.5,90.5h40.7
			c52.2,0,94.5-42.3,94.5-94.5V293C279.2,227.8,239.3,206.7,166.9,207.6z"/>
	</g>
	<g>
		<path class="st12" d="M267.3,530.1l-20.1-127.5c-0.7-4.5-6.6-5.6-8.9-1.7l-26.8,44.4c-1.2,2-3.8,2.9-6,2
			c-12-4.8-24.9-7.3-37.9-7.3c-13.1,0-25.8,2.4-37.7,7.2c-2.2,0.9-4.7,0.1-6-2l-26.7-44.3c-2.3-3.9-8.2-2.7-8.9,1.7L69.2,520.1
			c-0.3,1.4-0.5,2.9-0.7,4.4l-0.6,5.4c-0.2,2.7,0.1,5.3,0.1,7.9c0,28,12.9,53.3,31.9,71.1v-42.9h133.8v45.1
			c21-18,33.9-44.2,33.9-73.3C267.6,535.3,267.5,532.7,267.3,530.1z"/>
	</g>
	<g>
		<path d="M243.9,412.7c-0.5-3.2-4.7-4-6.4-1.2L211.3,455l0.2,0.2c-13.1-6.7-28-10.4-43.8-10.4c-15.6,0-30.4,3.7-43.4,10.2l0,0
			L98,411.4c-1.7-2.8-5.9-1.9-6.4,1.2L74,521c-0.3,1.4-0.5,2.9-0.7,4.3l-0.5,4.9c-0.2,2.5-0.3,5.1-0.3,7.7
			c0,51.4,42.6,93.1,95.2,93.1s95.2-41.7,95.2-93.1c0-2.8-0.1-5.5-0.4-8.2L243.9,412.7z"/>
	</g>
	<g>
		<path class="st12" d="M211.7,551.8c13.9,0,25.1,11.3,25.1,25.1c0,1.1-0.9,2-2,2c-1.1,0-2-0.9-2-2c0-11.6-9.5-21.2-21.2-21.2
			s-21.2,9.5-21.2,21.2c0,1.1-0.9,2-2,2s-2-0.9-2-2C186.5,563.1,197.8,551.8,211.7,551.8z"/>
	</g>
	<g>
		<path class="st12" d="M124.9,551.8c13.9,0,25.1,11.3,25.1,25.1c0,1.1-0.9,2-2,2c-1.1,0-2-0.9-2-2c0-11.6-9.5-21.2-21.2-21.2
			s-21.2,9.5-21.2,21.2c0,1.1-0.9,2-2,2s-2-0.9-2-2C99.7,563.1,111,551.8,124.9,551.8z"/>
	</g>
	<g>
		<path class="st12" d="M164.3,583.7h9.9c0.8,0,1.3,0.9,0.8,1.5l-5,7.7c-0.4,0.6-1.3,0.6-1.6,0l-5-7.7
			C163.1,584.5,163.6,583.7,164.3,583.7z"/>
	</g>
	<g>
		<path class="st12" d="M158.4,604.1c-4.3,0-8.2-3.7-11.7-11.4c-0.3-0.8,0-1.5,0.8-1.9c0.8-0.3,1.6-0.2,2,0.6c2.9,6.5,6,9.7,9,9.7
			c0,0,0,0,0.1,0c4.3,0,8.3-6.9,9.4-9.7c0.3-0.8,1.2-1,2-0.7c0.8,0.3,1.1,1,0.8,1.8C170.4,593,165.6,604.1,158.4,604.1
			C158.5,604.1,158.4,604.1,158.4,604.1z"/>
	</g>
	<g>
		<path class="st12" d="M179.6,604.1c-4.3,0-8.2-3.7-11.7-11.4c-0.3-0.8,0-1.5,0.8-1.9c0.8-0.3,1.6-0.2,2,0.6c2.9,6.5,6,9.7,9,9.7
			c0,0,0,0,0.1,0c4.3,0,8.3-6.9,9.4-9.7c0.3-0.8,1.2-1,2-0.7c0.8,0.3,1.1,1,0.8,1.8C191.6,593,186.8,604.1,179.6,604.1
			C179.7,604.1,179.7,604.1,179.6,604.1z"/>
	</g>
	<g>
		<path class="st13" d="M99,465.1c2.5-2.1,6.2-4.8,9.8-5.6c1-0.2,1.6-1.4,1.1-2.3l-8.4-16.9c-0.7-1.5-2.9-1.1-3.1,0.6l-2.1,22.9
			C96.2,465.2,97.9,466.1,99,465.1z"/>
	</g>
	<g>
		<path class="st13" d="M238,465.1c-2.5-2.1-6.2-4.8-9.8-5.6c-1-0.2-1.6-1.4-1.1-2.3l8.4-16.9c0.7-1.5,2.9-1.1,3.1,0.6l2.1,22.9
			C240.8,465.2,239.1,466.1,238,465.1z"/>
	</g>
	<g>
		<g>
			<path class="st12" d="M204,590.3c-0.4,0-0.8-0.3-0.9-0.7c-0.2-0.5,0.1-1,0.6-1.2l15.5-5.3c0.5-0.2,1,0.1,1.2,0.6
				c0.2,0.5-0.1,1-0.6,1.2l-15.5,5.3C204.2,590.3,204.1,590.3,204,590.3z"/>
		</g>
	</g>
	<g>
		<g>
			<path class="st12" d="M218.4,606.6c-0.1,0-0.2,0-0.3-0.1l-14.4-4.5c-0.5-0.2-0.8-0.7-0.6-1.2c0.2-0.5,0.7-0.8,1.2-0.6l14.4,4.5
				c0.5,0.2,0.8,0.7,0.6,1.2C219.2,606.3,218.8,606.6,218.4,606.6z"/>
		</g>
	</g>
	<g>
		<g>
			<path class="st12" d="M132.7,590.3c0.4,0,0.8-0.3,0.9-0.7c0.2-0.5-0.1-1-0.6-1.2l-15.5-5.3c-0.5-0.2-1,0.1-1.2,0.6
				c-0.2,0.5,0.1,1,0.6,1.2l15.5,5.3C132.5,590.3,132.6,590.3,132.7,590.3z"/>
		</g>
	</g>
	<g>
		<g>
			<path class="st12" d="M133.5,595.6c0.4-0.1,0.7-0.5,0.7-0.9c0-0.5-0.4-1-0.9-1l-16.4-0.4c-0.5,0-1,0.4-1,0.9c0,0.5,0.4,1,0.9,1
				l16.4,0.4C133.2,595.6,133.3,595.6,133.5,595.6z"/>
		</g>
	</g>
	<g>
		<g>
			<path class="st12" d="M220.9,595.6c0.4-0.1,0.7-0.5,0.7-0.9c0-0.5-0.4-1-0.9-1l-16.4-0.4c-0.5,0-1,0.4-1,0.9c0,0.5,0.4,1,0.9,1
				l16.4,0.4C220.7,595.6,220.8,595.6,220.9,595.6z"/>
		</g>
	</g>
	<g>
		<g>
			<path class="st12" d="M118.3,606.6c0.1,0,0.2,0,0.3-0.1L133,602c0.5-0.2,0.8-0.7,0.6-1.2c-0.2-0.5-0.7-0.8-1.2-0.6l-14.4,4.5
				c-0.5,0.2-0.8,0.7-0.6,1.2C117.6,606.3,117.9,606.6,118.3,606.6z"/>
		</g>
	</g>
</g>
</svg>
